<?xml version="1.0" standalone="no"?>
<!DOCTYPE svg PUBLIC "-//W3C//DTD SVG 20010904//EN"
 "http://www.w3.org/TR/2001/REC-SVG-20010904/DTD/svg10.dtd">
<svg version="1.0" xmlns="http://www.w3.org/2000/svg"
 width="300.000000pt" height="225.000000pt" viewBox="0 0 300.000000 225.000000"
 preserveAspectRatio="xMidYMid meet">
<metadata>
Created by potrace 1.10, written by Peter Selinger 2001-2011
</metadata>
<g transform="translate(0.000000,225.000000) scale(0.100000,-0.100000)"
fill="#000000" stroke="none">
<path d="M2562 2010 c-119 -24 -132 -29 -132 -45 0 -10 9 -11 38 -4 20 5 56 9
80 9 23 0 42 4 42 9 0 5 18 13 39 19 44 11 107 2 166 -22 31 -13 35 -19 31
-42 -3 -14 -7 -28 -9 -30 -2 -2 -20 10 -40 27 -20 17 -41 28 -45 25 -5 -3 -18
3 -30 14 -12 12 -23 16 -27 10 -3 -6 -16 -10 -28 -11 -13 0 1 -8 32 -20 29
-10 69 -30 87 -44 18 -14 37 -25 41 -25 5 0 17 16 26 36 13 27 15 40 6 55 -26
50 -142 66 -277 39z"/>
<path d="M2367 1944 c-21 -14 -36 -28 -34 -31 5 -4 87 46 87 53 0 10 -18 2
-53 -22z"/>
<path d="M393 1934 c-56 -19 -136 -111 -169 -195 -15 -38 -32 -69 -38 -69 -6
0 -6 -4 1 -11 8 -8 17 -5 32 10 25 25 68 27 93 4 14 -13 21 -14 30 -5 9 9 9
12 0 12 -7 0 -12 7 -12 15 0 20 72 39 150 39 77 0 161 -34 201 -81 13 -16 32
-32 42 -36 22 -8 42 -51 33 -73 -6 -16 -8 -16 -26 1 -19 18 -20 17 -20 -8 0
-32 2 -31 -43 -12 -20 8 -54 15 -76 15 -29 0 -51 9 -84 34 -45 35 -81 56 -92
56 -4 0 16 -18 44 -40 28 -22 51 -43 51 -45 0 -3 -15 -19 -32 -35 -28 -26 -39
-30 -75 -27 -57 6 -113 42 -113 73 0 21 4 23 43 21 23 -1 45 -6 49 -12 4 -5
18 -11 30 -12 13 -1 35 -5 51 -9 16 -4 27 -2 27 4 0 5 -14 12 -31 16 -20 4
-28 10 -23 17 4 8 3 9 -4 5 -6 -4 -26 0 -44 7 -18 8 -39 12 -46 9 -16 -5 -44
17 -36 29 3 5 15 10 27 10 12 1 -5 5 -38 9 -52 7 -63 6 -80 -11 -21 -18 -21
-18 -45 4 l-25 23 -17 -21 c-21 -27 -17 -108 8 -160 15 -32 14 -35 -10 -74
-15 -23 -30 -40 -34 -40 -4 1 -26 1 -49 0 -31 -1 -43 -5 -43 -16 0 -10 11 -15
35 -15 33 0 34 -1 23 -20 -7 -11 -17 -19 -23 -19 -28 3 -35 -3 -35 -31 0 -30
0 -30 29 -16 15 8 34 30 42 48 7 18 28 52 45 75 18 24 35 52 39 63 3 11 14 20
23 20 11 1 7 6 -11 16 -19 10 -27 21 -23 31 3 8 6 17 6 19 0 2 7 4 15 4 8 0
15 -5 15 -12 0 -6 3 -8 6 -5 4 4 1 13 -6 22 -10 12 -10 15 4 15 9 0 21 11 26
25 14 37 45 66 62 60 11 -5 14 -17 10 -54 -4 -41 -1 -51 19 -70 12 -11 30 -21
38 -21 13 0 13 -2 2 -9 -10 -6 -4 -12 20 -20 43 -14 93 -1 130 35 37 36 60 27
52 -20 -3 -21 -1 -42 6 -49 6 -8 9 -16 6 -19 -3 -3 3 -11 12 -19 16 -13 17
-12 4 4 -17 21 -14 21 35 -2 73 -35 81 -35 97 -1 11 21 12 32 4 37 -6 3 -12 2
-14 -4 -12 -36 -27 -42 -68 -28 -43 16 -65 38 -65 68 0 16 5 19 31 13 17 -3
37 -6 44 -6 7 0 15 -8 18 -19 4 -15 12 -18 47 -15 53 3 73 20 48 38 -26 19
-22 26 11 20 22 -5 32 -1 44 16 14 20 14 27 0 69 -9 25 -17 69 -18 96 -3 67
-36 134 -93 186 -48 44 -100 80 -87 60 3 -6 0 -11 -7 -12 -7 0 -3 -5 10 -11
12 -6 22 -15 22 -20 0 -5 -6 -6 -12 -2 -9 5 -9 2 1 -9 7 -9 18 -17 23 -17 6 0
19 -11 30 -26 11 -14 23 -22 26 -19 4 3 0 10 -7 14 -8 5 -9 11 -3 15 5 3 20
-20 33 -52 12 -31 27 -63 32 -69 5 -7 7 -13 3 -13 -3 0 -1 -11 4 -25 13 -33 6
-32 -42 9 -61 53 -104 69 -193 74 -74 4 -107 0 -264 -36 -39 -8 -16 13 30 28
22 8 43 20 46 28 3 7 13 11 22 8 9 -4 5 3 -8 14 -29 25 -54 22 -60 -5 -3 -19
-18 -35 -34 -35 -4 0 -2 10 4 23 7 12 15 29 19 37 4 8 17 20 29 26 12 6 32 20
44 31 35 32 69 47 112 49 22 1 45 3 50 5 6 2 20 -2 33 -9 24 -14 47 -8 36 9
-3 6 -13 9 -22 8 -10 -1 -19 0 -22 1 -21 8 -116 4 -147 -6z m-203 -318 c0 -2
3 -11 6 -20 4 -10 1 -16 -9 -16 -9 0 -23 -10 -31 -22 -16 -22 -16 -22 -16 8 0
32 15 54 37 54 7 0 13 -2 13 -4z m405 -96 c3 -6 17 -7 29 -4 25 6 106 -29 106
-46 0 -14 -23 -25 -28 -12 -2 7 -8 9 -14 6 -5 -3 -15 1 -21 10 -7 8 -30 19
-51 24 -22 4 -41 13 -44 20 -4 14 14 16 23 2z"/>
<path d="M2539 1946 c-2 -2 -31 -6 -64 -9 -33 -3 -73 -12 -90 -21 -16 -9 -34
-16 -39 -16 -19 0 -88 -65 -112 -106 -35 -59 -29 -91 23 -129 40 -29 60 -68
54 -107 -1 -10 3 -18 8 -18 6 0 11 9 11 20 0 11 4 20 9 20 5 0 7 13 5 30 -8
48 52 161 104 196 61 42 207 49 274 13 33 -18 108 -87 108 -99 0 -11 -35 -8
-46 3 -11 10 -26 9 -20 -2 3 -5 -18 -9 -47 -10 -62 0 -129 -20 -135 -40 -4
-11 0 -12 14 -6 38 16 179 33 197 23 10 -5 26 -6 36 -3 23 7 61 -37 61 -71 0
-30 16 -31 24 -1 17 65 2 209 -33 301 l-11 28 -29 -38 c-23 -32 -25 -40 -12
-43 9 -1 24 -10 33 -19 20 -17 55 -118 45 -128 -9 -9 -48 26 -41 37 3 5 0 9
-6 9 -6 0 -8 4 -5 10 9 15 -79 103 -133 133 -26 14 -68 29 -93 32 -24 4 -53 8
-65 10 -12 3 -23 3 -25 1z m137 -44 c11 -5 32 -16 47 -23 30 -14 134 -109 120
-109 -5 0 -27 14 -50 30 -57 42 -115 60 -192 60 -133 0 -209 -42 -259 -143
-13 -26 -28 -47 -33 -47 -26 0 -62 60 -53 87 10 28 122 133 142 133 10 0 23 5
29 11 26 26 200 27 249 1z"/>
<path d="M576 1855 c16 -14 33 -25 38 -25 5 0 24 -18 43 -40 36 -42 53 -50 53
-25 0 8 -6 15 -13 15 -7 0 -29 16 -48 36 -31 33 -78 64 -95 64 -4 0 6 -11 22
-25z"/>
<path d="M1880 1663 c19 -8 43 -22 53 -31 17 -15 17 -14 11 4 -13 35 -26 44
-63 43 l-36 -1 35 -15z"/>
<path d="M2405 1671 l-30 -8 26 -7 c34 -10 94 -4 94 9 0 12 -50 16 -90 6z"/>
<path d="M515 1650 c-3 -6 4 -14 17 -19 14 -6 17 -10 8 -11 -8 -1 10 -9 40
-19 30 -10 57 -17 59 -15 7 6 -43 43 -59 44 -9 0 -25 7 -37 15 -14 10 -24 12
-28 5z"/>
<path d="M2621 1629 c-13 -11 -18 -19 -12 -19 6 0 11 -6 11 -14 0 -16 37 -46
55 -46 5 0 2 5 -8 11 -9 6 -15 14 -12 20 4 5 1 9 -4 9 -6 0 -11 7 -11 15 0 18
21 20 39 3 10 -11 15 -10 24 3 11 15 16 15 41 2 35 -18 45 -10 21 17 -18 20
-41 28 -30 10 5 -9 -12 -8 -76 4 -8 2 -26 -5 -38 -15z"/>
<path d="M1606 1608 c-32 -44 -50 -155 -36 -229 11 -57 55 -130 73 -123 7 2
22 -17 33 -43 33 -74 36 -87 18 -109 -8 -10 -12 -13 -8 -5 4 9 2 12 -7 9 -8
-3 -13 -11 -11 -18 4 -19 -14 -36 -102 -97 -95 -66 -110 -83 -131 -144 -29
-85 -34 -174 -14 -248 14 -49 18 -103 19 -211 0 -80 1 -154 2 -165 2 -12 -5
-23 -19 -30 -31 -13 -29 -24 4 -21 37 4 46 39 38 149 -6 92 2 121 31 110 7 -3
12 -9 9 -13 -3 -5 -1 -11 4 -14 17 -11 33 54 30 126 -3 91 10 178 27 185 23 9
16 25 -7 18 -14 -5 -19 -3 -15 4 4 6 9 52 12 103 5 106 10 128 28 128 25 0 34
-25 41 -122 l7 -98 29 0 c16 0 29 5 29 12 0 7 11 28 24 47 l25 36 -30 85 c-34
100 -37 138 -12 136 13 -1 19 9 23 33 l5 33 20 -22 c11 -13 40 -32 63 -42 44
-20 44 -20 63 1 11 12 27 21 37 21 32 1 58 34 69 88 6 29 7 54 4 57 -13 7 -61
-63 -55 -79 3 -9 1 -16 -6 -16 -6 0 -8 5 -5 10 9 15 -7 12 -44 -6 -22 -11 -29
-20 -23 -26 14 -14 4 -38 -15 -38 -12 0 -13 3 -3 15 16 20 4 35 -28 35 -31 1
-49 13 -77 54 -11 16 -27 39 -35 51 -8 12 -23 34 -34 49 -21 30 -25 110 -7
144 6 11 39 35 74 51 126 62 208 47 237 -43 9 -26 19 -44 23 -40 4 5 5 -18 1
-50 l-7 -58 27 26 c14 15 26 29 26 31 0 11 -29 4 -33 -7 -3 -8 -6 -6 -6 4 -1
9 6 21 15 26 15 8 15 11 -5 31 -30 30 -29 59 1 31 21 -19 23 -20 29 -3 11 28
-13 56 -74 87 -58 29 -132 42 -142 25 -4 -5 -16 -9 -28 -9 -12 0 -39 -9 -60
-20 -20 -11 -37 -18 -37 -15 0 15 -79 -63 -91 -90 -7 -15 -8 -9 -5 20 4 25 13
45 26 54 11 7 20 20 20 27 0 8 9 14 21 14 11 0 18 4 14 9 -3 6 4 15 16 21 17
9 24 8 40 -6 20 -18 27 -6 8 13 -17 17 20 25 61 13 31 -9 60 -3 33 7 -7 3 -13
14 -14 26 -1 20 -2 20 -9 -3 -7 -22 -8 -23 -9 -4 -1 20 -4 21 -48 13 -27 -5
-49 -14 -51 -19 -2 -6 -10 -10 -17 -10 -12 0 -46 -36 -89 -95 -15 -20 -15 -20
-16 2 0 12 9 37 20 55 11 19 21 44 23 57 2 12 10 27 18 32 9 5 10 9 2 9 -7 0
-23 -15 -37 -32z m49 -635 c3 -16 15 -47 26 -70 16 -34 18 -46 9 -64 -16 -28
-26 -15 -38 51 -6 30 -13 67 -16 83 -4 15 -2 27 3 27 5 0 12 -12 16 -27z
m-125 -125 c0 -14 -17 -8 -34 11 -10 11 -15 25 -11 32 6 8 13 5 26 -12 10 -13
19 -27 19 -31z m-23 -20 c26 -24 30 -43 8 -34 -13 5 -13 2 1 -20 26 -39 11
-37 -27 3 -20 21 -27 33 -16 30 21 -8 23 9 1 17 -8 3 -12 10 -9 16 9 15 16 13
42 -12z m-8 -80 c34 -36 40 -58 15 -58 -13 0 -14 -3 -4 -15 6 -8 9 -19 5 -25
-3 -5 -8 -48 -9 -95 -1 -47 -5 -88 -9 -91 -13 -13 -27 9 -27 44 0 20 -7 61
-15 91 -9 36 -11 60 -4 72 6 11 6 20 -1 24 -5 3 -10 13 -10 21 0 11 4 12 19 4
31 -16 37 -12 13 10 -22 21 -30 50 -13 50 6 0 24 -15 40 -32z"/>
<path d="M2428 1611 c-30 -4 -53 -14 -63 -26 -25 -35 -16 -46 18 -21 9 7 17
18 17 25 0 14 17 14 25 0 4 -6 19 -7 35 -4 23 5 30 2 35 -15 5 -17 10 -19 21
-9 7 6 13 21 12 33 -2 25 -21 28 -100 17z"/>
<path d="M1959 1603 c-1 -5 -1 -12 0 -17 1 -5 -5 -6 -14 -3 -28 11 -15 -8 25
-36 27 -19 40 -24 40 -14 0 7 -11 19 -24 26 -16 9 -22 19 -19 32 3 10 3 19 -1
19 -3 0 -7 -3 -7 -7z"/>
<path d="M2876 1583 c-3 -3 -3 -15 -1 -27 3 -12 -1 -57 -8 -101 -8 -44 -11
-81 -6 -83 5 -2 9 -8 9 -13 0 -6 -4 -7 -10 -4 -5 3 -10 2 -10 -3 0 -14 26 -33
33 -25 4 3 7 -1 7 -10 0 -21 -23 -22 -40 -2 -7 8 -20 15 -29 14 -11 0 -9 -4 7
-11 12 -6 25 -22 28 -34 3 -13 9 -23 13 -22 24 3 29 -5 26 -39 -2 -28 2 -41
16 -51 22 -15 25 -32 7 -32 -7 0 -24 -10 -38 -21 l-25 -21 25 6 c92 19 120 30
120 48 0 14 -8 18 -39 18 l-39 0 -2 83 c-1 45 -2 92 -2 105 0 12 -5 22 -12 22
-6 0 -13 10 -13 23 -1 12 -5 32 -8 45 -3 12 -1 22 5 22 5 0 10 7 10 15 0 8 -5
15 -11 15 -7 0 0 12 15 26 20 21 29 24 39 15 11 -9 12 -22 4 -64 -6 -28 -15
-55 -21 -59 -8 -5 -7 -8 1 -8 20 0 53 75 53 120 0 34 -3 40 -22 40 -12 0 -32
-10 -45 -22 l-23 -21 0 20 c0 12 5 23 12 25 8 3 6 6 -4 10 -9 4 -19 4 -22 1z"/>
<path d="M2267 1513 c-10 -9 -8 -101 2 -107 4 -3 11 -70 14 -148 6 -173 18
-208 80 -239 23 -12 52 -30 63 -41 22 -20 43 -10 28 13 -8 13 38 1 46 -12 8
-11 50 18 50 34 0 7 -4 6 -10 -3 -8 -12 -12 -12 -18 -2 -6 8 -20 11 -38 8 -17
-3 -42 1 -58 9 -15 8 -33 15 -40 15 -17 0 -37 48 -22 54 6 2 1 5 -11 5 -16 1
-20 6 -16 21 4 15 0 20 -13 20 -16 0 -16 2 -4 10 12 7 10 12 -9 29 -29 25 -25
26 23 6 32 -14 52 -6 26 10 -8 5 -7 11 1 21 13 16 33 19 24 4 -3 -5 3 -10 14
-10 11 0 23 5 26 10 3 6 2 10 -3 10 -5 0 -7 12 -5 28 4 25 3 26 -9 7 -7 -11
-20 -21 -28 -23 -8 -2 -23 -11 -33 -19 -9 -9 -20 -13 -24 -10 -3 4 -1 7 5 7 7
0 12 4 12 9 0 5 -10 7 -22 4 -22 -4 -22 -4 -3 9 20 13 31 38 17 38 -4 0 -13
-5 -19 -11 -9 -9 -11 -7 -6 9 3 12 11 27 19 33 19 16 18 33 -2 25 -11 -4 -14
-1 -9 13 3 10 -2 38 -11 61 -14 35 -15 46 -5 62 7 11 11 21 9 22 -2 1 -10 7
-19 14 -9 6 -19 9 -22 5z"/>
<path d="M2479 1483 c-11 -13 -11 -17 -1 -21 9 -3 5 -11 -13 -27 -25 -24 -34
-42 -15 -30 6 3 17 0 25 -9 9 -9 11 -17 5 -21 -5 -3 -10 -3 -10 2 0 4 -5 1
-11 -7 -8 -11 -12 -12 -16 -2 -2 6 -14 12 -25 12 -17 0 -18 -2 -8 -15 7 -9 10
-18 6 -22 -3 -3 -6 -1 -6 5 0 23 -18 12 -22 -13 -6 -30 8 -43 25 -23 32 39
199 51 232 17 9 -8 17 -38 19 -66 4 -55 11 -73 29 -73 8 0 8 3 -2 9 -10 6 -10
13 -3 28 6 11 7 24 3 29 -5 5 -12 25 -15 44 -7 33 -6 34 8 16 9 -11 19 -16 23
-11 5 4 2 10 -4 12 -7 3 -13 9 -13 15 0 35 -91 56 -162 37 -24 -7 -27 -4 -33
23 -8 34 10 78 32 78 7 0 13 5 13 11 0 5 -4 8 -9 4 -5 -3 -12 -1 -16 5 -9 14
-21 12 -36 -7z"/>
<path d="M1181 1459 c-78 -39 -193 -145 -189 -174 2 -15 13 -21 45 -26 23 -3
50 -12 60 -21 10 -9 29 -19 43 -22 22 -6 21 -5 -5 10 -16 9 -41 25 -54 35
l-23 19 25 9 c33 13 94 16 130 6 27 -7 38 7 16 21 -24 14 -124 5 -163 -15 -46
-24 -70 -17 -35 10 13 10 27 19 32 19 4 0 25 12 46 26 52 34 174 48 223 24 40
-18 73 -79 63 -117 l-6 -26 -24 23 c-16 15 -30 20 -42 15 -15 -6 -13 -9 14
-23 18 -8 34 -22 35 -31 5 -23 -14 -71 -28 -71 -6 0 -11 -10 -10 -22 4 -57
-35 -118 -101 -159 -38 -24 -56 -20 -124 25 -57 37 -82 87 -82 166 0 48 -3 58
-28 78 -37 30 -49 22 -49 -34 0 -32 6 -49 20 -62 12 -9 28 -41 36 -70 22 -73
63 -117 135 -143 47 -17 59 -25 53 -38 -4 -9 -9 -29 -12 -46 -3 -16 -10 -33
-16 -37 -7 -5 -7 -8 3 -8 8 0 11 -7 8 -19 -4 -17 -2 -18 14 -8 10 6 19 16 19
21 0 5 11 -3 25 -19 22 -23 24 -29 13 -43 -11 -13 -10 -14 8 -4 11 6 26 7 33
2 18 -11 -21 -32 -43 -24 -9 3 -16 2 -16 -3 0 -12 48 -15 55 -3 8 12 25 13 44
1 11 -7 6 -17 -23 -45 -36 -36 -45 -56 -26 -56 5 0 21 18 35 40 14 22 32 40
40 40 26 0 16 18 -22 41 -64 40 -133 103 -133 122 0 37 36 98 70 121 40 26 67
73 114 202 20 54 36 79 66 103 45 36 48 47 21 99 -62 122 -165 154 -290 91z
m175 -20 c43 -26 98 -95 88 -111 -5 -7 -10 -4 -16 11 -4 13 -17 25 -28 28 -11
3 -18 9 -15 13 9 14 -55 61 -75 55 -15 -5 -18 -3 -14 9 8 21 20 20 60 -5z
m-375 -222 c-16 -16 -13 -37 4 -37 9 0 15 9 15 22 0 16 3 19 11 11 7 -7 8 -17
3 -25 -5 -7 -7 -21 -6 -30 5 -29 -27 -21 -39 9 -12 31 -4 77 12 67 8 -4 7 -10
0 -17z"/>
<path d="M1850 1463 c-27 -10 -60 -40 -52 -48 4 -3 7 -11 7 -17 0 -6 11 -13
24 -15 18 -2 22 0 17 12 -3 9 -2 14 3 11 5 -3 24 1 42 9 l34 14 -45 1 c-37 0
-42 3 -27 11 11 6 31 9 45 6 25 -5 25 -4 7 9 -20 15 -30 16 -55 7z"/>
<path d="M2542 1448 c-14 -14 -16 -48 -3 -48 5 0 11 8 15 18 3 9 9 23 12 30 7
15 -8 16 -24 0z"/>
<path d="M2586 1443 c-3 -3 -1 -14 5 -24 10 -20 34 -25 43 -10 7 10 -39 43
-48 34z"/>
<path d="M390 1408 c0 -4 6 -8 13 -8 6 0 22 -3 35 -6 18 -5 21 -3 16 10 -6 16
-64 20 -64 4z"/>
<path d="M1684 1404 c-18 -15 -18 -15 11 -10 28 6 29 5 11 -9 -11 -8 -26 -15
-33 -15 -7 0 -13 -5 -13 -10 0 -7 14 -9 38 -5 27 5 33 4 22 -4 -13 -9 -13 -11
2 -11 22 0 41 35 33 60 -8 24 -43 26 -71 4z"/>
<path d="M478 1383 c-16 -3 -28 -11 -28 -19 0 -12 8 -13 36 -8 27 5 35 4 30
-5 -4 -6 -2 -11 4 -11 14 0 9 43 -5 45 -5 1 -22 0 -37 -2z"/>
<path d="M604 1366 c11 -9 23 -16 28 -16 14 0 9 -19 -12 -38 -11 -10 -31 -39
-45 -65 -30 -57 -146 -177 -194 -202 -71 -36 -173 -64 -259 -70 -86 -7 -90 -7
-106 16 l-16 23 0 -27 c0 -30 40 -57 85 -57 14 0 25 -5 25 -12 0 -6 7 -4 18 5
33 30 56 19 28 -12 -14 -15 -11 -16 23 -13 31 3 41 10 56 38 10 19 23 34 29
34 29 0 169 72 213 108 27 23 54 42 60 42 17 0 13 -63 -5 -84 -18 -21 -19 -21
33 0 24 10 17 -14 -7 -27 l-22 -12 22 -8 c30 -11 28 -31 -14 -108 -33 -61 -34
-63 -7 -31 15 19 33 43 38 55 13 25 45 33 45 10 0 -8 29 -44 64 -78 35 -35 71
-77 80 -94 79 -154 91 -411 32 -677 -11 -47 -10 -66 2 -66 14 0 44 91 39 117
-3 15 4 61 14 102 23 90 24 207 4 327 -28 163 -48 209 -125 289 -91 95 -137
176 -145 260 -4 39 -11 77 -16 86 -6 11 -4 21 5 28 15 13 99 132 94 135 -8 5
-64 31 -73 34 -5 2 -1 -4 9 -12z m-406 -408 c17 -17 15 -38 -3 -38 -8 0 -15 7
-15 15 0 8 -5 15 -11 15 -5 0 -7 5 -4 10 8 13 18 13 33 -2z"/>
<path d="M324 1326 c11 -9 26 -16 33 -16 7 0 42 -13 76 -30 67 -32 91 -37 85
-19 -5 14 -132 67 -178 75 -33 5 -34 4 -16 -10z"/>
<path d="M176 1303 c31 -136 36 -148 91 -179 27 -17 40 -30 36 -40 -3 -8 -10
-14 -16 -14 -6 0 -8 -2 -5 -5 6 -6 147 40 157 51 3 4 -9 3 -28 -1 -47 -10
-114 12 -150 49 -21 21 -38 55 -50 96 -9 35 -23 66 -30 68 -8 3 -10 -4 -5 -25z"/>
<path d="M1878 1317 c27 -16 19 -27 -20 -27 -20 0 -27 4 -22 12 5 8 2 9 -12 3
-10 -4 -30 -9 -44 -11 -14 -1 -27 -3 -29 -3 -2 -1 2 -8 9 -16 9 -11 10 -19 2
-27 -16 -16 -34 2 -29 29 l5 25 -21 -20 c-26 -26 -17 -47 27 -62 30 -10 38 -9
52 4 14 15 14 16 -2 16 -27 0 -1 23 28 25 13 1 31 5 41 10 10 4 17 4 16 -1 -1
-5 -1 -16 0 -24 1 -12 5 -10 17 5 13 17 16 18 24 5 7 -11 10 -7 10 17 0 34
-21 53 -57 53 -15 -1 -14 -3 5 -13z"/>
<path d="M1115 1272 c-11 -11 48 -32 60 -22 6 5 16 6 20 2 5 -4 5 -2 2 4 -7
12 -74 24 -82 16z"/>
<path d="M1228 1268 c12 -15 10 -24 -18 -65 -27 -40 -30 -50 -20 -66 7 -12 7
-17 1 -12 -6 3 -11 1 -11 -5 0 -7 14 -9 38 -5 20 3 31 2 24 -1 -10 -5 -10 -10
4 -25 21 -23 20 -23 -39 -3 -26 9 -44 20 -41 25 3 5 -2 9 -10 9 -21 0 -31 -21
-15 -31 8 -5 24 -9 35 -9 12 0 41 -9 65 -19 24 -11 45 -18 48 -16 2 3 -3 15
-12 28 -9 14 -13 34 -10 47 5 19 3 22 -10 17 -9 -3 -19 -2 -22 3 -4 6 -15 10
-26 10 -10 0 -19 5 -19 10 0 6 4 10 10 10 5 0 16 14 25 30 23 45 45 39 46 -12
0 -24 3 -37 6 -30 2 6 8 10 12 8 4 -3 5 9 3 25 -3 21 1 34 14 44 18 14 17 14
-9 15 -15 0 -40 8 -55 17 -25 16 -26 16 -14 1z"/>
<path d="M2822 1252 c-13 -27 -8 -42 12 -42 19 0 26 33 12 52 -10 14 -13 12
-24 -10z"/>
<path d="M1315 1209 c-8 -13 -6 -15 23 -23 27 -9 30 9 3 24 -14 7 -22 7 -26
-1z"/>
<path d="M2584 1202 c4 -7 2 -12 -3 -12 -6 0 -11 -9 -11 -19 0 -11 -5 -21 -12
-23 -9 -3 -9 -6 0 -12 7 -4 12 -2 12 3 0 6 5 11 10 11 6 0 8 -11 4 -27 -6 -27
-6 -27 9 -8 11 14 12 25 5 38 -5 10 -7 25 -4 32 3 8 0 17 -6 21 -7 4 -8 3 -4
-4z"/>
<path d="M1811 1189 c-13 -5 -21 -12 -18 -15 6 -6 87 14 87 21 0 8 -44 4 -69
-6z"/>
<path d="M2456 1185 c-3 -8 -1 -15 5 -15 6 0 6 -8 -1 -21 -6 -11 -13 -29 -15
-39 -3 -16 -1 -17 13 -9 10 6 18 26 20 49 2 39 -11 62 -22 35z"/>
<path d="M2505 1182 c2 -9 4 -23 4 -29 1 -7 8 -13 16 -13 18 0 20 16 3 23 -10
4 -10 6 0 6 20 1 14 27 -7 28 -13 1 -18 -4 -16 -15z"/>
<path d="M2366 1151 c-30 -33 -12 -44 19 -11 20 21 24 30 13 30 -8 0 -23 -9
-32 -19z"/>
<path d="M2061 1065 c29 -48 29 -161 1 -226 -19 -44 -19 -46 -2 -42 12 3 20
-2 25 -16 3 -12 9 -21 13 -21 4 1 38 5 77 10 44 5 74 5 81 -1 8 -7 18 -1 33
17 12 15 21 32 21 38 0 19 -50 119 -77 154 -39 51 -39 30 0 -35 37 -60 55
-127 38 -138 -6 -3 -17 8 -26 25 -18 35 -30 39 -22 7 9 -33 -6 -49 -51 -53
-29 -3 -42 0 -46 11 -3 8 -1 15 4 15 6 0 10 5 10 10 0 6 -7 10 -15 10 -29 0
-15 18 18 23 38 5 60 -9 54 -35 -3 -10 0 -21 5 -25 6 -3 8 -1 4 5 -3 5 0 12 6
15 9 3 7 12 -8 33 -17 23 -29 29 -56 28 -32 -1 -35 1 -35 30 0 17 4 37 10 44
7 9 7 16 -1 24 -15 15 -16 48 -1 48 6 0 8 7 5 16 -5 13 -2 15 16 9 13 -3 33
-9 46 -12 21 -5 53 -33 109 -97 12 -14 23 -39 25 -55 3 -34 21 -30 32 6 5 17
-4 33 -40 75 -26 29 -59 59 -73 67 -27 15 -180 71 -193 71 -4 0 2 -16 13 -35z"/>
<path d="M2690 1088 c0 -10 5 -18 10 -18 6 0 10 -7 10 -15 0 -8 5 -15 10 -15
6 0 10 5 10 11 0 5 5 7 10 4 6 -3 10 -1 10 4 0 6 -9 11 -20 11 -10 0 -24 8
-29 18 -10 16 -10 16 -11 0z"/>
<path d="M961 1045 c-6 -16 -17 -43 -23 -60 -6 -16 -18 -38 -26 -47 -11 -13
-11 -18 -3 -18 15 0 75 125 68 142 -3 7 -10 0 -16 -17z"/>
<path d="M2020 1012 c0 -49 -5 -66 -29 -99 -36 -50 -80 -70 -125 -56 -66 20
-67 -48 -1 -91 31 -20 56 -21 49 -1 -5 11 1 15 25 15 29 0 35 5 57 55 18 40
27 79 31 145 3 49 3 90 -1 90 -3 0 -6 -26 -6 -58z"/>
<path d="M2910 1004 c-25 -13 -62 -29 -84 -35 -48 -13 -144 -58 -152 -71 -4
-5 7 -3 24 6 16 8 32 13 34 10 3 -3 27 7 54 21 32 17 58 24 75 21 14 -3 30 -1
35 3 5 5 30 16 57 26 49 18 64 46 25 44 -13 0 -43 -11 -68 -25z"/>
<path d="M1750 1006 c0 -4 9 -25 20 -46 16 -31 26 -40 46 -40 17 0 28 -7 31
-19 7 -26 47 -32 85 -11 38 20 64 54 74 95 l7 30 -24 -28 c-48 -56 -163 -56
-215 0 -13 14 -24 23 -24 19z"/>
<path d="M2526 941 c-16 -11 -44 -22 -62 -26 -37 -7 -51 -22 -36 -37 12 -12
117 44 126 67 7 19 7 19 -28 -4z"/>
<path d="M865 920 c-40 -16 -60 -23 -68 -24 -9 -1 -27 -27 -27 -39 0 -5 11 1
25 12 14 11 39 23 55 26 17 4 33 11 36 16 9 15 2 18 -21 9z"/>
<path d="M2748 850 c-21 -23 -38 -46 -38 -52 0 -6 14 6 30 27 17 21 38 44 48
51 9 7 13 14 8 14 -5 0 -26 -18 -48 -40z"/>
<path d="M2341 835 c-17 -20 -31 -40 -31 -45 0 -6 -14 -25 -31 -43 -36 -37
-79 -117 -79 -146 0 -13 -7 -19 -22 -18 -13 0 -41 -3 -63 -6 -22 -4 -62 -9
-90 -12 -56 -5 -123 -20 -132 -29 -4 -3 -2 -6 4 -6 6 0 10 -7 9 -16 -2 -25 29
-41 48 -25 22 18 20 34 -3 28 -12 -3 -22 1 -25 10 -5 11 -2 13 10 9 8 -3 22
-6 30 -6 24 0 17 -48 -8 -56 -42 -15 -73 -11 -90 12 -10 12 -31 27 -47 32 -26
9 -29 8 -24 -6 8 -22 34 -52 45 -52 5 0 1 12 -9 28 l-16 27 23 -22 c31 -29 21
-51 -22 -48 -40 3 -58 -9 -51 -35 4 -15 -2 -22 -22 -30 -21 -8 -26 -15 -22
-33 5 -20 9 -138 8 -212 -1 -17 -17 -54 -36 -83 -26 -40 -30 -53 -18 -50 9 2
30 25 47 53 29 47 31 56 34 170 2 104 6 124 25 152 29 43 124 73 232 73 104 0
86 -17 -25 -23 -106 -7 -170 -19 -152 -31 7 -4 32 -4 55 0 23 4 52 6 64 5 12
-1 39 2 60 8 20 6 41 7 45 3 4 -4 -2 -36 -13 -72 -16 -51 -19 -89 -18 -191 0
-70 -2 -133 -6 -138 -3 -6 -2 -11 4 -11 16 0 20 32 24 170 3 123 3 126 44 210
48 99 45 113 -24 104 -44 -5 -73 6 -73 29 0 5 10 2 22 -9 l22 -19 -23 32 -22
33 31 -4 c17 -2 43 -14 57 -27 l26 -24 -18 27 c-16 26 -16 28 -1 34 10 4 26
-1 38 -12 21 -19 21 -19 14 0 -7 19 -6 19 14 1 22 -20 28 -8 8 14 -11 11 -10
13 5 8 13 -5 24 4 44 36 15 23 35 49 45 57 11 9 20 26 21 38 1 12 5 22 10 22
4 0 15 17 23 38 35 87 43 95 71 67 8 -9 18 -13 22 -10 3 4 -2 13 -13 20 -10 8
-15 18 -11 24 15 25 -15 8 -44 -24z"/>
<path d="M2463 857 c-7 -7 -18 -18 -25 -24 -40 -39 -51 -56 -63 -104 -22 -89
-29 -142 -16 -135 6 4 11 14 11 23 0 62 64 211 95 223 13 5 26 14 30 19 9 15
-17 13 -32 -2z"/>
<path d="M2969 843 c-32 -36 -65 -98 -89 -168 -22 -63 -19 -73 6 -17 44 98 56
119 84 152 16 19 30 41 30 48 0 17 -3 16 -31 -15z"/>
<path d="M2444 784 c-3 -12 -19 -59 -35 -105 -43 -123 -45 -129 -23 -99 10 14
21 27 24 30 3 3 11 28 17 55 6 28 16 68 22 90 5 22 8 42 5 44 -3 3 -7 -4 -10
-15z"/>
<path d="M1114 750 c-37 -56 -25 -60 14 -5 17 25 27 45 22 45 -5 0 -22 -18
-36 -40z"/>
<path d="M1770 770 c0 -5 4 -10 9 -10 5 0 11 -9 14 -20 3 -11 12 -20 21 -20
22 0 20 13 -7 38 -25 24 -37 28 -37 12z"/>
<path d="M1734 744 c4 -11 2 -15 -8 -11 -11 4 -13 1 -9 -10 4 -10 2 -14 -4
-10 -13 8 -43 -19 -42 -36 0 -9 2 -8 6 1 8 20 21 14 25 -13 3 -21 7 -17 30 29
23 47 24 55 11 60 -11 5 -14 2 -9 -10z"/>
<path d="M2062 750 c3 -8 15 -45 27 -82 13 -37 27 -71 33 -74 6 -4 8 1 5 12
-24 89 -42 136 -55 146 -13 11 -15 10 -10 -2z"/>
<path d="M2156 752 c-16 -3 -18 -10 -12 -50 6 -48 12 -60 22 -49 4 3 2 25 -4
47 -7 30 -7 40 1 37 6 -2 16 -26 23 -53 l12 -49 0 40 c1 50 -16 82 -42 77z"/>
<path d="M1990 733 c0 -4 5 -22 12 -40 8 -23 18 -33 33 -33 14 0 24 -10 33
-32 6 -17 14 -29 18 -25 11 11 -20 67 -38 67 -11 0 -24 14 -32 35 -14 32 -26
45 -26 28z"/>
<path d="M1840 725 c0 -2 5 -16 12 -30 13 -28 30 -35 22 -7 -5 14 -3 14 10 -2
9 -11 16 -26 16 -33 0 -7 11 -13 25 -13 18 0 25 -5 25 -19 0 -11 5 -23 10 -26
7 -4 8 3 4 22 -8 34 -23 63 -24 46 0 -20 -18 -15 -31 8 -10 20 -9 21 10 16 11
-3 24 -1 27 4 12 20 24 7 30 -31 4 -22 13 -48 20 -57 12 -17 13 -16 13 7 -1
26 -37 134 -38 114 -1 -13 -99 -16 -107 -3 -5 9 -24 12 -24 4z"/>
<path d="M27 702 c-21 -23 -22 -33 -2 -26 8 3 43 -3 77 -15 35 -11 98 -28 141
-38 42 -9 77 -22 77 -28 -1 -5 -27 -93 -59 -195 l-58 -185 -34 -3 c-19 -2 -64
4 -101 11 -52 11 -68 12 -68 2 0 -11 46 -24 140 -40 61 -11 83 17 129 160 22
69 46 135 53 147 6 13 13 30 14 38 2 8 5 29 8 45 3 17 2 36 -3 43 -10 17 -75
35 -124 34 -29 0 -37 3 -33 14 3 8 2 14 -2 14 -79 5 -106 11 -121 24 -16 15
-19 15 -34 -2z"/>
<path d="M840 701 c0 -11 41 -64 57 -74 7 -4 13 -14 13 -22 0 -8 13 -21 28
-30 23 -14 27 -23 24 -46 -2 -16 -9 -29 -15 -29 -8 0 -8 -3 -1 -10 19 -19 46
0 40 26 -5 17 -2 24 9 24 8 0 15 4 15 8 0 14 -23 32 -41 32 -19 0 -53 40 -42
49 3 3 8 0 10 -6 8 -22 21 -14 21 12 0 28 -16 44 -27 26 -10 -16 -61 3 -61 23
0 7 -7 16 -15 20 -8 3 -15 2 -15 -3z"/>
<path d="M1817 704 c-7 -12 10 -83 24 -100 5 -6 7 -13 4 -16 -3 -2 1 -5 8 -5
9 0 12 9 9 26 -3 20 -2 23 8 15 6 -7 13 -24 13 -38 1 -14 5 -26 9 -26 15 0 18
20 6 47 -6 15 -11 31 -10 34 0 3 -9 5 -20 5 -15 -1 -24 8 -33 33 -6 19 -14 30
-18 25z"/>
<path d="M1181 690 c0 -8 6 -26 14 -40 21 -37 18 -57 -11 -67 -25 -8 -25 -9
-6 -26 18 -17 20 -17 18 -1 -2 30 21 26 27 -6 4 -16 11 -30 17 -30 11 0 2 60
-11 74 -5 6 -9 21 -9 35 0 15 -9 37 -20 51 -13 16 -20 20 -19 10z"/>
<path d="M1767 687 c-4 -10 -7 -33 -6 -50 l1 -32 9 33 c12 40 8 79 -4 49z"/>
<path d="M21 644 c6 -8 27 -22 45 -30 19 -9 34 -20 34 -24 0 -5 11 -3 25 3 20
10 35 27 22 27 -1 0 -33 9 -70 20 -55 15 -66 16 -56 4z"/>
<path d="M1033 628 c0 -13 -2 -30 -4 -38 -2 -9 2 -15 11 -15 8 0 14 6 13 13
-4 18 3 15 27 -10 28 -30 26 -35 -20 -42 -33 -5 -40 -10 -40 -29 0 -39 -12
-67 -28 -67 -13 0 -12 -3 4 -15 25 -19 38 -19 30 0 -13 36 6 74 47 94 l41 21
23 -22 c28 -27 29 -38 3 -38 -17 0 -19 -4 -14 -27 9 -37 14 -41 25 -20 11 18
39 24 39 7 0 -5 9 -14 19 -19 14 -8 22 -7 32 6 12 15 12 16 -5 10 -22 -9 -56
17 -56 43 0 10 -7 23 -15 30 -8 7 -15 19 -15 26 0 8 -11 19 -25 24 -14 5 -28
18 -32 27 -7 21 -43 63 -54 63 -4 0 -7 -10 -6 -22z"/>
<path d="M583 618 c-11 -13 -26 -34 -33 -48 -8 -17 -2 -14 20 13 17 20 38 37
46 37 8 0 12 5 9 10 -9 15 -20 12 -42 -12z"/>
<path d="M170 590 c7 -13 21 -20 41 -20 34 0 46 -19 29 -49 -10 -20 -12 -20
-41 -6 -16 9 -39 13 -49 10 -28 -9 -60 3 -60 23 0 14 -9 17 -45 17 -36 0 -45
-3 -45 -17 0 -12 8 -18 24 -18 14 0 28 -4 31 -10 3 -5 17 -10 31 -10 20 0 24
-5 24 -32 l0 -31 23 21 c25 24 67 30 66 10 0 -7 -8 -35 -18 -63 -16 -44 -21
-50 -49 -53 -33 -3 -40 6 -21 25 8 8 -2 8 -35 1 -35 -7 -51 -7 -61 2 -13 10
-15 8 -15 -14 0 -22 4 -26 31 -26 17 0 40 -5 51 -11 12 -6 35 -12 52 -13 22
-1 32 -7 35 -21 6 -32 -22 -43 -84 -32 -51 8 -95 4 -82 -9 10 -10 168 -31 173
-23 2 4 27 77 54 161 26 84 51 160 55 169 4 12 -5 18 -45 27 -74 17 -83 16
-70 -8z"/>
<path d="M1630 600 c-19 -12 5 -40 34 -39 11 0 15 3 9 6 -7 2 -13 11 -13 18 0
19 -13 25 -30 15z"/>
<path d="M1710 559 c0 -20 30 -41 48 -34 15 6 14 8 -5 16 -13 4 -23 13 -23 19
0 5 -4 10 -10 10 -5 0 -10 -5 -10 -11z"/>
<path d="M2100 546 c0 -10 43 -66 51 -66 11 0 18 39 8 46 -5 3 -9 0 -9 -7 0
-7 -11 -2 -25 11 -14 13 -25 20 -25 16z"/>
<path d="M1840 537 c0 -2 14 -16 31 -33 30 -28 31 -28 19 -4 -7 14 -18 28 -24
32 -11 8 -26 10 -26 5z"/>
<path d="M35 470 c-9 -17 -14 -37 -12 -43 2 -7 12 6 21 27 20 48 14 60 -9 16z"/>
<path d="M1337 440 c9 -34 17 -59 19 -57 2 2 5 25 8 53 2 27 2 41 -1 32 -6
-24 -23 -23 -23 1 0 11 -4 22 -9 25 -5 3 -2 -21 6 -54z"/>
<path d="M2308 458 c-36 -63 -51 -105 -44 -123 8 -23 26 -9 26 20 0 13 14 44
30 68 31 47 36 62 21 71 -5 3 -20 -13 -33 -36z"/>
<path d="M1622 464 c-18 -12 -20 -18 -10 -39 6 -14 20 -25 31 -25 15 0 17 -3
8 -13 -6 -8 -8 -17 -4 -20 9 -9 -29 -8 -43 1 -6 4 -10 22 -9 40 2 26 -1 32
-12 28 -8 -3 -19 -6 -24 -6 -5 0 -9 -4 -9 -10 0 -5 7 -7 15 -4 10 4 15 0 15
-10 0 -11 -7 -16 -17 -14 -11 2 -18 -3 -18 -12 0 -9 12 -16 30 -18 17 -2 35
-8 41 -13 15 -13 46 0 40 17 -3 8 0 11 8 8 22 -8 26 10 10 40 -7 16 -14 34
-14 42 0 21 -15 24 -38 8z"/>
<path d="M1075 443 c4 -10 8 -24 8 -30 0 -7 5 -13 10 -13 5 0 7 -11 4 -25 -3
-16 0 -24 7 -22 13 4 26 -9 44 -44 7 -14 27 -40 44 -58 22 -24 28 -38 24 -56
-9 -35 5 -195 17 -195 6 0 8 34 4 95 -4 52 -4 95 0 95 4 0 15 -7 25 -17 17
-15 18 -15 18 0 0 10 -7 17 -15 17 -9 0 -19 10 -24 23 -5 13 -28 43 -50 66
-23 23 -41 48 -41 55 0 7 -9 21 -20 31 -11 10 -20 28 -20 39 -1 22 -22 56 -35
56 -4 0 -4 -8 0 -17z"/>
<path d="M1150 388 c0 -7 14 -21 30 -30 36 -21 38 -17 6 16 -26 29 -36 32 -36
14z"/>
<path d="M1537 311 c-8 -16 -11 -34 -8 -40 12 -20 84 -51 103 -45 10 3 18 1
18 -5 0 -6 5 -11 10 -11 6 0 10 5 10 10 0 6 9 20 20 32 11 12 20 27 20 32 0 6
-8 1 -18 -11 -32 -40 -142 -23 -142 23 0 11 6 11 33 0 17 -7 38 -11 45 -9 7 3
12 -3 12 -13 0 -13 3 -15 11 -7 19 19 2 43 -30 43 -16 0 -31 6 -35 15 -9 24
-33 17 -49 -14z"/>
<path d="M2246 287 c-9 -33 -7 -37 9 -31 16 7 20 39 6 48 -5 3 -11 -4 -15 -17z"/>
<path d="M1370 257 c0 -9 -9 -26 -21 -38 -11 -11 -17 -24 -13 -27 3 -4 9 -1
11 6 3 6 13 12 24 12 16 0 18 5 13 28 -8 33 -14 41 -14 19z"/>
<path d="M2146 192 c-18 -36 -37 -114 -26 -107 5 3 14 22 20 43 6 20 16 47 22
59 17 35 2 39 -16 5z"/>
<path d="M1456 125 c4 -22 11 -48 15 -57 5 -9 9 -28 9 -42 0 -21 5 -26 24 -26
23 0 23 1 12 37 -6 21 -18 49 -27 63 -9 14 -22 34 -28 45 -9 17 -10 13 -5 -20z"/>
<path d="M1555 41 c-2 -5 6 -16 20 -25 32 -21 38 -20 26 3 -12 22 -38 34 -46
22z"/>
</g>
</svg>
